# This file uses centimeters as units for non-parametric coordinates.

mtllib hammer.mtl
g default
v 0.858846 -0.060536 -0.037040
v 0.929300 -0.060536 -0.059932
v 0.909827 -0.060536 0.000000
v 0.858846 -0.060536 0.037040
v 0.972843 -0.060536 0.000000
v 0.929300 -0.060536 0.059932
v 0.752077 0.537802 -0.124207
v 0.752077 0.391788 -0.076764
v 0.752077 0.497445 0.000000
v 0.752077 0.391788 0.076764
v 0.752077 0.628044 0.000000
v 0.752077 0.537802 0.124207
v 0.929300 0.633372 -0.059932
v 0.858846 0.633372 -0.037040
v 0.909827 0.633372 0.000000
v 1.079612 0.392260 -0.076457
v 1.079612 0.537691 -0.123711
v 1.079612 0.497495 0.000000
v 0.858846 0.633372 0.037040
v 1.079612 0.392260 0.076457
v 0.972843 0.633372 0.000000
v 0.929300 0.633372 0.059932
v 1.079612 0.627572 0.000000
v 1.079612 0.537691 0.123711
v 0.858846 0.414229 -0.037040
v 0.929300 0.414229 -0.059932
v 0.858846 0.414229 0.037040
v 0.972843 0.414229 0.000000
v 0.929300 0.414229 0.059932
v 0.858846 0.578693 -0.037040
v 0.929300 0.562061 -0.059932
v 0.972843 0.605604 0.000000
v 0.929300 0.562061 0.059932
v 0.858846 0.578693 0.037040
v 0.858846 0.605604 0.000000
v 0.931592 0.532505 0.100612
v 0.930213 0.414229 0.062182
vt 0.373591 0.064409
vt 0.548284 0.007647
vt 0.500000 0.150000
vt 0.373591 0.248091
vt 0.656250 0.156250
vt 0.548284 0.304853
vt 0.548284 0.992353
vt 0.373591 0.935591
vt 0.500000 0.837500
vt 0.373591 0.751909
vt 0.656250 0.843750
vt 0.548284 0.695147
vt 0.548284 0.992353
vt 0.373591 0.935591
vt 0.500000 0.837500
vt 0.373591 0.064409
vt 0.548284 0.007647
vt 0.500000 0.150000
vt 0.373591 0.751909
vt 0.373591 0.248091
vt 0.656250 0.843750
vt 0.548284 0.695147
vt 0.656250 0.156250
vt 0.548284 0.304853
vt 0.375000 0.312500
vt 0.425000 0.312500
vt 0.425000 0.569714
vt 0.375000 0.569714
vt 0.475000 0.312500
vt 0.475000 0.569714
vt 0.575000 0.312500
vt 0.625000 0.312500
vt 0.625000 0.569714
vt 0.575000 0.569714
vt 0.525000 0.312500
vt 0.525000 0.569714
vt 0.375000 0.312500
vt 0.425000 0.312500
vt 0.425000 0.688440
vt 0.375000 0.688440
vt 0.425000 0.658816
vt 0.425000 0.688440
vt 0.375000 0.688440
vt 0.375000 0.649805
vt 0.475000 0.312500
vt 0.525000 0.312500
vt 0.525000 0.688440
vt 0.475000 0.688440
vt 0.625000 0.649805
vt 0.625000 0.688440
vt 0.575000 0.688440
vt 0.575000 0.673396
vt 0.525000 0.649805
vt 0.525000 0.688440
vt 0.475000 0.688440
vt 0.475000 0.658816
vt 0.450000 0.673396
vt 0.474096 0.485026
vt 0.450000 0.435048
vt 0.425904 0.485026
vt 0.435108 0.565892
vt 0.464892 0.565892
vt 0.575000 0.312500
vt 0.625000 0.312500
vt 0.625000 0.688440
vt 0.575000 0.688440
vt 0.575000 0.565892
vt 0.593407 0.565892
vt 0.604784 0.485026
vt 0.575000 0.435048
vt 0.545216 0.485026
vt 0.556593 0.565892
vt 0.525000 0.482395
vt 0.475000 0.483978
vn 0.000000 -1.000000 0.000000
vn 0.000000 -1.000000 0.000000
vn 0.000000 -1.000000 0.000000
vn 0.000000 -1.000000 0.000000
vn 0.000000 -1.000000 -0.000000
vn 0.000000 -1.000000 -0.000000
vn -1.000000 0.000000 0.000000
vn -1.000000 -0.000000 0.000000
vn -1.000000 -0.000000 0.000000
vn -1.000000 -0.000000 0.000000
vn -1.000000 0.000000 0.000000
vn -1.000000 -0.000000 0.000000
vn 0.000000 1.000000 0.000000
vn 0.000000 1.000000 0.000000
vn 0.000000 1.000000 0.000000
vn 1.000000 0.000000 0.000000
vn 1.000000 0.000000 0.000000
vn 1.000000 0.000000 0.000000
vn 0.000000 1.000000 0.000000
vn 1.000000 0.000000 0.000000
vn 0.000000 1.000000 0.000000
vn 0.000000 1.000000 0.000000
vn 1.000000 0.000000 0.000000
vn 1.000000 0.000000 0.000000
vn -0.309017 0.000000 -0.951057
vn -0.309017 0.000000 -0.951057
vn -0.309017 0.000000 -0.951057
vn -0.309017 0.000000 -0.951057
vn -1.000000 0.000000 0.000000
vn -1.000000 0.000000 0.000000
vn -1.000000 0.000000 0.000000
vn -1.000000 0.000000 0.000000
vn 0.809017 0.000000 -0.587785
vn 0.809017 0.000000 -0.587785
vn 0.809017 0.000000 -0.587785
vn 0.809017 0.000000 -0.587785
vn -0.309017 0.000000 0.951057
vn -0.309017 0.000000 0.951057
vn -0.309017 0.000000 0.951057
vn -0.309017 0.000000 0.951057
vn 0.809017 0.000000 0.587785
vn 0.809017 0.000000 0.587785
vn 0.809017 0.000000 0.587785
vn 0.809017 0.000000 0.587785
vn 0.001336 -0.309017 -0.951056
vn 0.001336 -0.309017 -0.951056
vn 0.001336 -0.309017 -0.951056
vn 0.001336 -0.309017 -0.951056
vn -0.309017 0.000000 -0.951057
vn -0.309017 0.000000 -0.951056
vn -0.309017 0.000000 -0.951056
vn -0.309017 0.000000 -0.951056
vn -0.135674 -0.305518 0.942471
vn -0.135674 -0.305518 0.942471
vn 0.000157 -0.309017 0.951056
vn 0.001727 -0.309024 0.951053
vn 0.809017 0.000000 -0.587785
vn 0.809017 0.000000 -0.587785
vn 0.809017 0.000000 -0.587785
vn 0.809017 0.000000 -0.587785
vn -0.309017 0.000000 0.951056
vn -0.309017 0.000000 0.951056
vn -0.309017 0.000000 0.951056
vn -0.309017 0.000000 0.951057
vn 0.809017 0.000000 0.587785
vn 0.809017 0.000000 0.587785
vn 0.809017 0.000000 0.587785
vn 0.809017 0.000000 0.587785
vn -1.000000 0.000000 0.000000
vn -1.000000 0.000000 0.000000
vn -1.000000 0.000000 0.000000
vn -1.000000 0.000000 0.000000
vn -1.000000 0.000000 0.000000
vn -0.105091 -0.988403 -0.109618
vn -0.169157 -0.985501 0.013203
vn -0.169427 -0.985443 0.014037
vn -0.127880 -0.987611 -0.090946
vn -0.171865 -0.982735 0.068509
vn -0.093681 -0.894370 0.437409
vn 0.195595 -0.979531 0.047561
vn 0.082391 0.874784 -0.477456
vn 0.083625 0.873825 -0.478996
vn 0.167630 0.797570 -0.579467
vn 0.167630 0.797570 -0.579467
vn -0.126381 0.814670 0.565987
vn -0.164200 0.798037 0.579807
vn -0.127376 0.814254 0.566363
vn 0.131719 0.817867 0.560128
vn 0.127705 0.820021 0.557904
vn 0.167630 0.797570 0.579467
vn 0.167630 0.797570 0.579467
vn -0.022333 0.837460 0.546042
vn -0.030455 0.836384 0.547297
vn 0.115560 -0.307492 0.944508
vn 0.115560 -0.307492 0.944508
vn 0.200906 -0.979520 -0.013315
vn -0.131802 0.816560 -0.562013
vn -0.090957 0.850542 -0.517982
vn -0.030158 0.893119 -0.448809
vn -0.131802 0.816560 -0.562013
vn 0.182465 -0.981139 -0.063825
vn 0.182465 -0.981139 0.063824
s 1
g hammer
usemtl initialShadingGroup
f 1/1/1 2/2/2 3/3/3
f 4/4/4 1/1/1 3/3/3
f 2/2/2 5/5/5 3/3/3
f 6/6/6 4/4/4 3/3/3
f 5/5/5 6/6/6 3/3/3
s 2
f 7/7/7 8/8/8 9/9/9
f 8/8/8 10/10/10 9/9/9
f 11/11/11 7/7/7 9/9/9
f 10/10/10 12/12/12 9/9/9
f 12/12/12 11/11/11 9/9/9
s 3
f 13/13/13 14/14/14 15/15/15
s 4
f 16/16/16 17/17/17 18/18/18
s 3
f 14/14/14 19/19/19 15/15/15
s 4
f 20/20/20 16/16/16 18/18/18
s 3
f 21/21/21 13/13/13 15/15/15
f 19/19/19 22/22/22 15/15/15
f 22/22/22 21/21/21 15/15/15
s 4
f 17/17/17 23/23/23 18/18/18
f 24/24/24 20/20/20 18/18/18
f 23/23/23 24/24/24 18/18/18
s off
f 2/25/25 1/26/26 25/27/27 26/28/28
f 1/26/29 4/29/30 27/30/31 25/27/32
f 5/31/33 2/32/34 26/33/35 28/34/36
f 4/29/37 6/35/38 29/36/39 27/30/40
f 6/35/41 5/31/42 28/34/43 29/36/44
f 17/37/45 16/38/46 8/39/47 7/40/48
f 30/41/49 14/42/50 13/43/51 31/44/52
s 5
f 20/45/53 24/46/54 36/73/55 37/74/56
s off
f 31/49/57 13/50/58 21/51/59 32/52/60
f 33/53/61 22/54/62 19/55/63 34/56/64
f 32/52/65 21/51/66 22/54/67 33/53/68
f 34/56/69 19/55/70 14/42/71 30/41/72 35/57/73
s 6
f 29/58/74 28/59/75 20/45/76 37/74/77
f 16/38/78 26/60/79 8/39/80
s 7
f 30/68/81 7/65/82 11/66/83 35/67/84
s 8
f 24/46/85 23/63/86 32/70/87
f 12/47/88 34/72/89 35/67/90 11/66/91
f 36/73/92 33/71/93 34/72/89 12/47/88
s 5
f 37/74/56 36/73/55 12/47/94 10/48/95
s 6
f 29/58/74 37/74/77 10/48/96
f 20/45/76 28/59/75 26/60/79 16/38/78
s 8
f 24/46/85 32/70/87 33/71/93 36/73/92
s 7
f 23/63/97 17/64/98 31/69/99 32/70/100
f 31/69/99 17/64/98 7/65/82 30/68/81
s 6
f 10/48/96 27/62/101 29/58/74
f 8/39/80 25/61/102 27/62/101 10/48/96
f 8/39/80 26/60/79 25/61/102
