# This file uses centimeters as units for non-parametric coordinates.

mtllib one.mtl
g default
v -2.463219 0.220485 0.000000
v -2.890095 0.987240 0.000000
v -2.463219 1.220485 0.000000
v -2.641467 1.246653 0.000000
v -2.759224 0.220485 0.000000
v -2.759224 0.815462 0.000000
v -2.886357 0.859588 0.000000
v -2.463219 0.815462 0.000000
v -2.463219 0.815462 0.224606
v -2.759224 0.815462 0.224606
v -2.759224 0.220485 0.224606
v -2.463219 0.220485 0.224606
v -2.886357 0.859588 0.224606
v -2.641467 1.246653 0.224606
v -2.890095 0.987240 0.224606
v -2.463219 1.220485 0.224606
vt 0.625000 0.148744
vt 0.471518 0.148744
vt 0.471518 0.000000
vt 0.625000 0.000000
vt 0.375000 0.148744
vt 0.471518 0.250000
vt 0.375000 0.250000
vt 0.625000 0.250000
vt 0.471518 0.148744
vt 0.471518 0.000000
vt 0.625000 0.000000
vt 0.625000 0.148744
vt 0.375000 0.148744
vt 0.471518 0.250000
vt 0.375000 0.250000
vt 0.625000 0.250000
vn -0.000000 -0.000000 1.000000
vn 0.000000 -0.000000 1.000000
vn 0.000000 -0.000000 1.000000
vn 0.000000 -0.000000 1.000000
vn 0.000000 0.000000 1.000000
vn 0.000000 0.000000 1.000000
vn 0.000000 0.000000 1.000000
vn -0.000000 0.000000 1.000000
vn -1.000000 0.000000 0.000000
vn -1.000000 0.000000 0.000000
vn -1.000000 0.000000 0.000000
vn -1.000000 0.000000 0.000000
vn 0.000000 -1.000000 0.000000
vn 0.000000 -1.000000 0.000000
vn 0.000000 -1.000000 0.000000
vn 0.000000 -1.000000 0.000000
vn 1.000000 0.000000 0.000000
vn 1.000000 0.000000 0.000000
vn 1.000000 0.000000 0.000000
vn 1.000000 0.000000 0.000000
vn -0.327895 -0.944714 0.000000
vn -0.327895 -0.944714 0.000000
vn -0.327895 -0.944714 0.000000
vn -0.327895 -0.944714 0.000000
vn -0.721955 0.691940 0.000000
vn -0.721955 0.691940 0.000000
vn -0.721955 0.691940 0.000000
vn -0.721955 0.691940 0.000000
vn -0.999572 -0.029273 0.000000
vn -0.999572 -0.029273 0.000000
vn -0.999572 -0.029273 0.000000
vn -0.999572 -0.029273 0.000000
vn 1.000000 0.000000 0.000000
vn 1.000000 0.000000 0.000000
vn 0.145251 0.989395 0.000000
vn 0.145251 0.989395 0.000000
vn 0.145251 0.989395 0.000000
vn 0.145251 0.989395 0.000000
s 1
g One
usemtl initialShadingGroup
f 9/12/1 10/9/2 11/10/3 12/11/4
f 13/13/5 10/9/2 14/14/6 15/15/7
f 14/14/6 10/9/2 9/12/1 16/16/8
s off
f 6/2/9 5/3/10 11/10/11 10/9/12
f 5/3/13 1/4/14 12/11/15 11/10/16
s 2
f 1/4/17 8/1/18 9/12/19 12/11/20
s off
f 7/5/21 6/2/22 10/9/23 13/13/24
f 4/6/25 2/7/26 15/15/27 14/14/28
f 2/7/29 7/5/30 13/13/31 15/15/32
s 2
f 8/1/18 3/8/33 16/16/34 9/12/19
s off
f 3/8/35 4/6/36 14/14/37 16/16/38
