# This file uses centimeters as units for non-parametric coordinates.

mtllib plus.mtl
g default
v -4.814022 0.449519 0.000000
v -4.575371 0.463546 0.000000
v -4.771937 0.700192 0.000000
v -4.527274 0.700192 0.000000
v -4.439879 0.457538 0.000000
v -4.377006 0.695978 0.000000
v -4.962107 0.453496 0.000000
v -4.921407 0.698157 0.000000
v -4.757356 0.849994 0.000000
v -4.529780 0.861828 0.000000
v -4.825749 0.274265 0.000000
v -4.564714 0.265908 0.000000
v -4.721716 0.934615 0.000000
v -4.585013 0.941614 0.000000
v -4.774024 0.184134 0.000000
v -4.596877 0.195742 0.000000
v -5.039906 0.530196 0.000000
v -5.015486 0.642583 0.000000
v -4.320139 0.510506 0.000000
v -4.329837 0.640088 0.000000
v -4.370517 0.457556 0.000000
v -4.679798 0.164919 0.000000
v -4.657933 0.948578 0.000000
v -4.814022 0.449519 0.226688
v -4.575371 0.463546 0.226688
v -4.527274 0.700192 0.226688
v -4.771937 0.700192 0.226688
v -4.439879 0.457538 0.226688
v -4.377006 0.695978 0.226688
v -4.921407 0.698157 0.226688
v -4.962107 0.453496 0.226688
v -4.529780 0.861828 0.226688
v -4.757356 0.849994 0.226688
v -4.825749 0.274265 0.226688
v -4.564714 0.265908 0.226688
v -4.657933 0.948578 0.226688
v -4.721716 0.934615 0.226688
v -4.679798 0.164919 0.226688
v -4.596877 0.195742 0.226688
v -5.015486 0.642583 0.226688
v -5.039906 0.530196 0.226688
v -4.370517 0.457556 0.226688
v -4.320139 0.510506 0.226688
v -4.329837 0.640088 0.226688
v -4.774024 0.184134 0.226688
v -4.585013 0.941614 0.226688
vt 0.375000 0.000000
vt 0.625000 0.000000
vt 0.375000 0.250000
vt 0.625000 0.250000
vt 0.000000 0.000000
vt 1.000000 0.000000
vt 1.000000 1.000000
vt 0.000000 1.000000
vt 0.000000 0.000000
vt 1.000000 0.000000
vt 1.000000 1.000000
vt 0.000000 1.000000
vt 0.000000 0.000000
vt 1.000000 0.000000
vt 1.000000 1.000000
vt 0.000000 1.000000
vt 0.000000 0.000000
vt 1.000000 0.000000
vt 1.000000 1.000000
vt 0.000000 1.000000
vt 0.000000 0.000000
vt 1.000000 0.000000
vt 1.000000 1.000000
vt 0.000000 1.000000
vt 0.000000 0.000000
vt 1.000000 0.000000
vt 1.000000 1.000000
vt 0.000000 1.000000
vt 0.000000 0.000000
vt 1.000000 0.000000
vt 1.000000 1.000000
vt 0.000000 1.000000
vt 0.000000 0.000000
vt 1.000000 0.000000
vt 1.000000 1.000000
vt 0.000000 1.000000
vt 1.000000 0.495099
vt 0.445504 1.000000
vt 0.442257 1.000000
vt 1.000000 0.000000
vt 1.000000 1.000000
vt 0.000000 1.000000
vt 0.000000 0.000000
vt 1.000000 0.000000
vt 1.000000 1.000000
vt 0.000000 1.000000
vt 0.000000 0.000000
vt 1.000000 0.000000
vt 1.000000 1.000000
vt 0.000000 1.000000
vt 0.000000 0.000000
vt 1.000000 0.000000
vt 1.000000 1.000000
vt 0.000000 1.000000
vt 0.000000 0.000000
vt 0.442257 1.000000
vt 0.000000 1.000000
vt 0.000000 0.000000
vt 0.445504 1.000000
vt 0.000000 1.000000
vt 0.000000 0.000000
vt 1.000000 0.000000
vt 1.000000 1.000000
vt 0.000000 1.000000
vt 0.000000 0.000000
vt 1.000000 0.495099
vt 1.000000 1.000000
vt 0.000000 1.000000
vt 0.000000 0.000000
vt 1.000000 0.000000
vt 1.000000 0.000000
vt 1.000000 1.000000
vt 1.000000 0.000000
vt 1.000000 1.000000
vn -0.000000 0.000000 1.000000
vn -0.000000 0.000000 1.000000
vn -0.000000 0.000000 1.000000
vn -0.000000 0.000000 1.000000
vn 0.000000 0.000000 1.000000
vn -0.000000 0.000000 1.000000
vn 0.000000 0.000000 1.000000
vn 0.000000 0.000000 1.000000
vn 0.000000 0.000000 1.000000
vn 0.000000 0.000000 1.000000
vn 0.000000 0.000000 1.000000
vn 0.000000 0.000000 1.000000
vn 0.000000 0.000000 1.000000
vn 0.000000 0.000000 1.000000
vn 0.000000 0.000000 1.000000
vn 0.000000 0.000000 1.000000
vn 0.000000 0.000000 1.000000
vn 0.000000 0.000000 1.000000
vn 0.000000 0.000000 1.000000
vn -0.000000 0.000000 1.000000
vn -0.000000 0.000000 1.000000
vn 0.000000 0.000000 1.000000
vn 0.000000 0.000000 1.000000
vn -0.044298 -0.999018 0.000000
vn -0.029229 -0.999573 0.000000
vn -0.029229 -0.999573 0.000000
vn -0.044298 -0.999018 0.000000
vn 0.028032 0.999607 0.000000
vn 0.028032 0.999607 0.000000
vn 0.028032 0.999607 0.000000
vn 0.028032 0.999607 0.000000
vn -0.013611 0.999907 0.000000
vn -0.230187 0.973146 0.000000
vn -0.230187 0.973146 0.000000
vn -0.013611 0.999907 0.000000
vn -0.026847 -0.999640 0.000000
vn -0.026847 -0.999640 0.000000
vn -0.026847 -0.999640 0.000000
vn -0.026847 -0.999640 0.000000
vn 0.999880 0.015501 0.000000
vn 0.999880 0.015501 0.000000
vn 0.999880 0.015501 0.000000
vn 0.999880 0.015501 0.000000
vn -0.977814 0.209477 0.000000
vn -0.995297 0.096873 0.000000
vn -0.995297 0.096873 0.000000
vn -0.977814 0.209477 0.000000
vn -0.997769 0.066765 0.000000
vn -0.997769 0.066765 0.000000
vn -0.997769 0.066765 0.000000
vn -0.997769 0.066765 0.000000
vn 0.996791 -0.080048 0.000000
vn 0.998549 0.053843 0.000000
vn 0.998549 0.053843 0.000000
vn 0.996791 -0.080048 0.000000
vn -0.051134 0.998692 0.000000
vn -0.213853 0.976866 0.000000
vn -0.213853 0.976866 0.000000
vn -0.051134 0.998692 0.000000
vn -0.921595 0.388153 0.000000
vn -0.921595 0.388153 0.000000
vn 0.348427 -0.937336 0.000000
vn 0.348427 -0.937336 0.000000
vn 0.348427 -0.937336 0.000000
vn 0.348427 -0.937336 0.000000
vn 0.909048 -0.416691 0.000000
vn 0.909048 -0.416691 0.000000
vn -0.508606 0.860999 0.000000
vn -0.508606 0.860999 0.000000
vn -0.977199 0.212326 0.000000
vn -0.977199 0.212326 0.000000
vn -0.977199 0.212326 0.000000
vn -0.977199 0.212326 0.000000
vn -0.702058 -0.712120 0.000000
vn -0.702058 -0.712120 0.000000
vn -0.702058 -0.712120 0.000000
vn -0.702058 -0.712120 0.000000
vn 0.724486 -0.689289 0.000000
vn 0.724486 -0.689289 0.000000
vn 0.724486 -0.689289 0.000000
vn 0.724486 -0.689289 0.000000
vn 0.997212 0.074627 0.000000
vn 0.997212 0.074627 0.000000
vn 0.997212 0.074627 0.000000
vn 0.997212 0.074627 0.000000
vn 0.764214 0.644963 0.000000
vn 0.764214 0.644963 0.000000
vn 0.764214 0.644963 0.000000
vn 0.764214 0.644963 0.000000
vn 0.000257 -1.000000 0.000000
vn 0.000257 -1.000000 0.000000
vn -0.867320 -0.497751 0.000000
vn -0.867320 -0.497751 0.000000
vn -0.867320 -0.497751 0.000000
vn -0.867320 -0.497751 0.000000
vn -0.199819 -0.979833 0.000000
vn -0.199819 -0.979833 0.000000
vn -0.199819 -0.979833 0.000000
vn -0.199819 -0.979833 0.000000
vn 0.822206 0.569189 0.000000
vn 0.822206 0.569189 0.000000
vn 0.822206 0.569189 0.000000
vn 0.822206 0.569189 0.000000
vn 0.095069 0.995471 0.000000
vn 0.095069 0.995471 0.000000
s 1
g Plus
usemtl initialShadingGroup
f 24/1/1 25/2/2 26/4/3 27/3/4
f 26/43/3 25/40/2 28/41/5 29/42/6
f 24/47/1 27/44/4 30/45/7 31/46/8
f 27/51/4 26/48/3 32/49/9 33/50/10
f 25/55/2 24/52/1 34/53/11 35/54/12
f 33/58/10 32/73/9 36/56/13 37/57/14
f 35/61/12 34/71/11 38/59/15 39/60/16
f 31/65/8 30/62/7 40/63/17 41/64/18
f 29/69/6 42/66/19 43/67/20 44/68/21
f 29/69/6 28/70/5 42/66/19
f 38/59/15 34/71/11 45/72/22
f 36/56/13 32/73/9 46/74/23
s 2
f 2/6/24 5/7/25 28/41/26 25/40/27
s off
f 6/8/28 4/5/29 26/43/30 29/42/31
s 3
f 3/10/32 8/11/33 30/45/34 27/44/35
s off
f 7/12/36 1/9/37 24/47/38 31/46/39
f 4/14/40 10/15/41 32/49/42 26/48/43
s 4
f 9/16/44 3/13/45 27/51/46 33/50/47
s off
f 1/18/48 11/19/49 34/53/50 24/52/51
s 5
f 12/20/52 2/17/53 25/55/54 35/54/55
s 6
f 23/39/56 13/24/57 37/57/58 36/56/59
s 4
f 13/24/60 9/21/44 33/58/47 37/57/61
s off
f 22/38/62 16/28/63 39/60/64 38/59/65
s 5
f 16/28/66 12/25/52 35/61/55 39/60/67
s 3
f 8/30/33 18/31/68 40/63/69 30/62/34
s off
f 18/31/70 17/32/71 41/64/72 40/63/73
f 17/32/74 7/29/75 31/65/76 41/64/77
f 21/37/78 19/35/79 43/67/80 42/66/81
f 19/35/82 20/36/83 44/68/84 43/67/85
f 20/36/86 6/33/87 29/69/88 44/68/89
s 2
f 5/34/25 21/37/90 42/66/91 28/70/26
s off
f 11/26/92 15/27/93 45/72/94 34/71/95
f 15/27/96 22/38/97 38/59/98 45/72/99
f 10/22/100 14/23/101 46/74/102 32/73/103
s 6
f 14/23/104 23/39/56 36/56/59 46/74/105
