# This file uses centimeters as units for non-parametric coordinates.

mtllib Three.mtl
g default
v -0.188864 0.582132 0.000001
v 0.006807 0.577469 0.000002
v -0.184032 0.822197 0.000001
v 0.001260 0.865818 0.000002
v -0.228543 0.694360 0.000001
v 0.229092 0.764037 0.000001
v 0.036267 0.911635 0.000001
v 0.268642 1.154337 0.000001
v 0.005423 0.956936 0.000001
v 0.333430 0.921923 0.000001
v -0.341980 0.902237 0.000001
v -0.234270 0.870836 0.000001
v 0.047636 0.511233 0.000000
v -0.109863 0.906371 0.000001
v -0.224253 1.172575 0.000001
v -0.011406 1.254771 0.000001
v -0.338544 1.069417 0.000001
v 0.115053 0.201761 -0.000000
v 0.022454 0.434574 -0.000000
v 0.346399 0.419557 0.000000
v 0.358847 0.618650 0.000000
v -0.193795 0.198762 -0.000001
v -0.143836 0.470455 -0.000001
v -0.443804 0.462384 -0.000002
v -0.267887 0.618116 -0.000002
v -0.356910 0.290530 -0.000001
v -0.188864 0.582132 0.224607
v 0.006808 0.577469 0.224607
v 0.072945 0.712713 0.224607
v -0.228543 0.694360 0.224607
v 0.001260 0.865819 0.224607
v -0.184032 0.822197 0.224607
v 0.229092 0.764036 0.224606
v 0.036268 0.911635 0.224607
v 0.333430 0.921923 0.224606
v 0.268642 1.154338 0.224606
v 0.005423 0.956936 0.224607
v -0.109863 0.906371 0.224607
v -0.224254 1.172575 0.224606
v -0.338544 1.069417 0.224606
v 0.047637 0.511232 0.224606
v -0.011406 1.254772 0.224606
v -0.341980 0.902237 0.224606
v -0.234270 0.870837 0.224607
v 0.358847 0.618650 0.224606
v 0.346399 0.419557 0.224606
v 0.022453 0.434574 0.224605
v 0.115052 0.201761 0.224605
v -0.143837 0.470455 0.224605
v -0.193796 0.198762 0.224605
v -0.356911 0.290530 0.224604
v -0.267887 0.618116 0.224604
v -0.443804 0.462385 0.224604
vt 0.375000 0.000000
vt 0.597015 -0.005086
vt 0.625000 0.116872
vt 0.375000 0.116872
vt 0.625000 0.250000
vt 0.375000 0.250000
vt 0.625000 0.116872
vt 0.631824 0.243105
vt 0.625000 0.116872
vt 0.625000 0.116872
vt 0.625761 0.236340
vt 0.625000 0.250000
vt 0.625000 0.116872
vt 0.625000 0.116872
vt 0.625000 0.116872
vt 0.625000 0.116872
vt 0.625000 0.116872
vt 0.625000 0.116872
vt 0.625000 0.250000
vt 0.000000 0.000000
vt 1.006158 0.340948
vt 0.000000 0.291548
vt 0.000000 0.526524
vt 1.000000 1.000000
vt 0.000000 1.000000
vt 0.000000 0.000000
vt 1.000000 0.000000
vt 1.000000 1.000000
vt 0.000000 1.000000
vt 0.000000 0.000000
vt 1.000000 0.000000
vt 0.000000 0.471006
vt 1.000000 1.000000
vt 0.000000 1.000000
vt 0.375000 0.000000
vt 0.597015 -0.005086
vt 0.375000 0.116872
vt 0.625000 0.250000
vt 0.375000 0.250000
vt 0.631824 0.243105
vt 0.625000 0.116872
vt 0.625000 0.116872
vt 0.625000 0.116872
vt 0.625761 0.236340
vt 0.625000 0.116872
vt 0.625000 0.116872
vt 0.625000 0.116872
vt 0.625000 0.116872
vt 0.625000 0.116872
vt 0.625000 0.250000
vt 0.625000 0.116872
vt 0.625000 0.250000
vt 0.000000 0.291548
vt 0.000000 0.000000
vt 1.006158 0.340948
vt 1.000000 1.000000
vt 0.000000 1.000000
vt 0.000000 0.526524
vt 1.000000 0.000000
vt 1.000000 1.000000
vt 0.000000 1.000000
vt 0.000000 0.000000
vt 0.000000 0.471006
vt 0.000000 0.000000
vt 1.000000 0.000000
vt 1.000000 1.000000
vt 0.000000 1.000000
vn -0.000000 0.000001 1.000000
vn -0.000000 0.000001 1.000000
vn 0.000004 -0.000001 1.000000
vn -0.000000 -0.000000 1.000000
vn 0.000002 0.000001 1.000000
vn -0.000000 -0.000001 1.000000
vn 0.000002 -0.000001 1.000000
vn 0.000002 0.000001 1.000000
vn 0.000001 0.000000 1.000000
vn 0.000001 0.000001 1.000000
vn 0.000000 0.000001 1.000000
vn -0.000000 0.000001 1.000000
vn -0.000000 0.000001 1.000000
vn -0.000001 0.000001 1.000000
vn 0.000009 -0.000006 1.000000
vn 0.000001 -0.000003 1.000000
vn -0.000000 0.000001 1.000000
vn -0.000001 0.000001 1.000000
vn -0.000001 0.000001 1.000000
vn 0.000000 -0.000002 1.000000
vn -0.000001 -0.000002 1.000000
vn -0.000002 -0.000001 1.000000
vn -0.000002 -0.000001 1.000000
vn -0.000003 0.000001 1.000000
vn -0.000003 -0.000000 1.000000
vn -0.000002 0.000001 1.000000
vn -0.000002 0.000002 1.000000
vn -0.000002 0.000002 1.000000
vn -0.023822 -0.999716 -0.000001
vn -0.023822 -0.999716 -0.000001
vn -0.023822 -0.999716 -0.000001
vn -0.023822 -0.999716 -0.000001
vn -0.942809 -0.333335 -0.000000
vn -0.942809 -0.333335 -0.000000
vn -0.942809 -0.333335 -0.000000
vn -0.942809 -0.333335 -0.000000
vn -0.229153 0.973390 0.000000
vn -0.229153 0.973390 0.000000
vn -0.229153 0.973390 0.000000
vn -0.229153 0.973390 0.000000
vn -0.944393 0.328818 -0.000000
vn -0.944393 0.328818 -0.000000
vn -0.944393 0.328818 -0.000000
vn -0.944393 0.328818 -0.000000
vn -0.794598 0.607136 0.000001
vn -0.794598 0.607136 0.000001
vn -0.794598 0.607136 0.000001
vn -0.794598 0.607136 0.000001
vn 0.834288 -0.551330 -0.000001
vn 0.834287 -0.551330 -0.000001
vn 0.834288 -0.551330 -0.000001
vn 0.834287 -0.551330 -0.000001
vn 0.963274 0.268522 -0.000001
vn 0.963274 0.268522 -0.000001
vn 0.963274 0.268522 -0.000001
vn 0.963274 0.268522 -0.000001
vn -0.826593 -0.562800 0.000002
vn -0.826593 -0.562800 0.000002
vn -0.826593 -0.562800 0.000002
vn -0.826593 -0.562800 0.000002
vn -0.492965 0.870049 -0.000001
vn -0.670030 0.742334 -0.000001
vn -0.670030 0.742334 -0.000001
vn -0.492965 0.870049 -0.000001
vn -0.851263 -0.524739 0.000001
vn -0.851263 -0.524739 0.000001
vn -0.851263 -0.524739 0.000001
vn -0.851263 -0.524739 0.000001
vn 0.337579 0.941297 -0.000001
vn 0.337579 0.941297 -0.000001
vn 0.337579 0.941297 -0.000001
vn 0.337579 0.941297 -0.000001
vn -0.360246 0.932858 -0.000001
vn -0.360246 0.932858 -0.000001
vn 0.338059 -0.941125 0.000001
vn 0.401666 -0.915786 0.000000
vn 0.401666 -0.915786 0.000000
vn 0.338059 -0.941125 0.000001
vn -0.999789 0.020550 -0.000001
vn -0.999789 0.020550 -0.000001
vn -0.999789 0.020550 -0.000001
vn -0.999789 0.020550 -0.000001
vn -0.279878 -0.960036 0.000000
vn -0.279878 -0.960036 0.000000
vn -0.279878 -0.960036 0.000000
vn -0.279878 -0.960036 0.000000
vn 0.274648 -0.961545 0.000001
vn 0.274648 -0.961545 0.000001
vn 0.746076 0.665861 0.000001
vn 0.746076 0.665861 0.000001
vn 0.746076 0.665861 0.000001
vn 0.746076 0.665861 0.000001
vn -0.950049 0.312101 0.000001
vn -0.950049 0.312101 0.000001
vn -0.950049 0.312101 0.000001
vn -0.950049 0.312101 0.000001
vn 0.685463 -0.728108 -0.000000
vn 0.685463 -0.728108 -0.000000
vn 0.685462 -0.728108 -0.000000
vn 0.685462 -0.728108 -0.000000
vn 0.998051 -0.062401 0.000000
vn 0.998051 -0.062401 0.000000
vn 0.998051 -0.062401 0.000000
vn 0.998051 -0.062401 0.000000
vn 0.210918 0.977504 0.000001
vn 0.210918 0.977504 0.000001
vn 0.210918 0.977504 0.000001
vn 0.210918 0.977504 0.000001
vn -0.184844 -0.982768 -0.000001
vn 0.009710 -0.999953 -0.000001
vn 0.009710 -0.999953 -0.000001
vn -0.184844 -0.982768 -0.000001
vn -0.490326 -0.871539 -0.000001
vn -0.490326 -0.871539 -0.000001
vn 0.765666 0.643238 0.000001
vn 0.765666 0.643238 0.000001
vn 0.765666 0.643238 0.000001
vn 0.765667 0.643238 0.000001
vn -0.662843 0.748758 -0.000003
vn -0.662843 0.748758 -0.000003
vn -0.662843 0.748758 -0.000003
vn -0.662843 0.748758 -0.000003
vn -0.892411 -0.451224 -0.000001
vn -0.892411 -0.451224 -0.000001
vn -0.892411 -0.451224 -0.000001
vn -0.892411 -0.451224 -0.000001
s 1
g Three
usemtl initialShadingGroup
f 27/35/1 28/36/2 29/3/3 30/37/4
f 30/37/4 29/3/3 31/38/5 32/39/6
f 31/38/5 29/3/3 33/41/7 34/40/8
f 34/40/8 33/41/7 35/42/9
f 34/40/8 35/42/9 36/43/10 37/44/11
f 38/50/12 39/45/13 40/46/14
f 33/41/7 29/3/3 28/47/15 41/48/16
f 37/44/11 36/43/10 42/49/17
f 37/44/11 42/49/17 39/45/13 38/50/12
f 38/50/12 40/46/14 43/51/18 44/52/19
f 33/54/7 41/55/16 45/53/20
f 46/58/21 41/55/16 47/56/22 48/57/23
f 45/53/20 41/55/16 46/58/21
f 48/62/23 47/59/22 49/60/24 50/61/25
f 50/64/25 49/65/24 51/63/26
f 51/63/26 49/65/24 52/66/27 53/67/28
s off
f 1/1/29 2/2/30 28/36/31 27/35/32
f 5/4/33 1/1/34 27/35/35 30/37/36
f 4/5/37 3/6/38 32/39/39 31/38/40
f 3/6/41 5/4/42 30/37/43 32/39/44
f 7/8/45 4/5/46 31/38/47 34/40/48
f 6/7/49 10/9/50 35/42/51 33/41/52
f 10/9/53 8/10/54 36/43/55 35/42/56
f 9/11/57 7/8/58 34/40/59 37/44/60
s 3
f 15/13/61 17/14/62 40/46/63 39/45/64
s off
f 2/15/65 13/16/66 41/48/67 28/47/68
f 8/10/69 16/17/70 42/49/71 36/43/72
s 3
f 16/17/73 15/13/61 39/45/64 42/49/74
s 4
f 14/12/75 9/11/76 37/44/77 38/50/78
s off
f 17/14/79 11/18/80 43/51/81 40/46/82
f 11/18/83 12/19/84 44/52/85 43/51/86
s 4
f 12/19/87 14/12/75 38/50/78 44/52/88
s off
f 21/22/89 6/20/90 33/54/91 45/53/92
f 13/21/93 19/24/94 47/56/95 41/55/96
f 18/25/97 20/23/98 46/58/99 48/57/100
f 20/23/101 21/22/102 45/53/103 46/58/104
f 19/27/105 23/28/106 49/60/107 47/59/108
s 5
f 22/29/109 18/26/110 48/62/111 50/61/112
f 26/32/113 22/30/109 50/64/112 51/63/114
s off
f 23/31/115 25/33/116 52/66/117 49/65/118
f 25/33/119 24/34/120 53/67/121 52/66/122
f 24/34/123 26/32/124 51/63/125 53/67/126
